Coordinates
version=1
nRows=29
nColumns=24
inDegrees=yes

Units are S.I. units (second, meters, Newtons, ...)
Angles are in degrees.

endheader
time	pelvis_tilt	pelvis_list	pelvis_rotation	pelvis_tx	pelvis_ty	pelvis_tz	hip_flexion_r	hip_adduction_r	hip_rotation_r	knee_angle_r	ankle_angle_r	subtalar_angle_r	mtp_angle_r	hip_flexion_l	hip_adduction_l	hip_rotation_l	knee_angle_l	ankle_angle_l	subtalar_angle_l	mtp_angle_l	lumbar_extension	lumbar_bending	lumbar_rotation
      3.06000000	     17.71297834	     -2.08113541	     -5.24631673	     -0.13237957	      0.96362257	     -0.01893528	      1.98049163	     -2.71698767	     -3.78993585	    -26.44829216	     20.74399298	      7.87024939	     27.16161438	    -28.92898413	      2.28306863	    -13.38358220	      4.51057965	     10.97913098	     17.49385837	      6.99781716	    -29.84800937	     -1.76349015	      3.24812510
      3.06500000	     17.73787160	     -2.08459681	     -5.05717873	     -0.12818146	      0.96312355	     -0.01888528	      1.76359309	     -2.60277349	     -3.78166539	    -24.24738265	     20.46301786	      7.68191009	     27.28684319	    -29.26410118	      2.21562123	    -13.25621948	      4.57594403	     11.18796236	     17.48560517	      7.01579117	    -29.90282890	     -1.67251350	      3.08854731
      3.07000000	     17.86844630	     -2.05554587	     -4.89978031	     -0.12397396	      0.96272335	     -0.01869676	      1.39334998	     -2.51270014	     -3.65442180	    -21.97733235	     20.12335619	      7.33674911	     27.61288193	    -29.73358500	      2.20073036	    -13.22654735	      4.69293026	     11.28665646	     17.67806150	      7.01787619	    -30.06609341	     -1.65034254	      2.90495374
      3.07500000	     17.91326846	     -2.03890991	     -4.72100193	     -0.11974136	      0.96219570	     -0.01854377	      1.08819699	     -2.40794555	     -3.55520220	    -19.65560325	     19.45984176	      6.86879055	     31.03037636	    -30.06183121	      2.14613048	    -13.21408220	      4.69530789	     11.55885917	     17.86882540	      6.71498777	    -30.13593679	     -1.58786939	      2.74553642
      3.08000000	     17.99167230	     -1.96821453	     -4.53809411	     -0.11550317	      0.96164398	     -0.01840582	      0.74356371	     -2.37408290	     -3.45355331	    -17.39046886	     19.07245978	      6.67773157	     31.04327178	    -30.43015921	      2.14274293	    -13.13120960	      4.72328799	     11.74825096	     17.98054206	      6.70422319	    -30.23550693	     -1.57753424	      2.56406380
      3.08500000	     18.05265957	     -1.88376496	     -4.32618587	     -0.11118985	      0.96103017	     -0.01828943	      0.39160117	     -2.35716459	     -3.38087456	    -15.13163782	     18.69109978	      6.52319105	     31.11188691	    -30.77629572	      2.13127619	    -13.02379976	      4.74004028	     11.96083731	     18.11905137	      6.69262896	    -30.30744149	     -1.56269331	      2.35090558
      3.09000000	     18.12230760	     -1.78239357	     -4.15830312	     -0.10689522	      0.96039465	     -0.01806199	      0.01519143	     -2.35251052	     -3.20032063	    -12.85797283	     18.03960725	      6.14008597	     33.18362028	    -31.10340523	      2.14887908	    -13.02916442	      4.69011208	     12.25713423	     18.41165412	      6.19998942	    -30.38787623	     -1.58731027	      2.19911905
      3.09500000	     18.17559917	     -1.64123485	     -3.95034541	     -0.10252391	      0.95968724	     -0.01793149	     -0.33668251	     -2.40821908	     -3.12380236	    -10.70346457	     17.60297054	      6.05993715	     33.17214207	    -31.42803386	      2.18323925	    -12.89011003	      4.68073716	     12.46044304	     18.52506251	      6.19685035	    -30.43936088	     -1.62204782	      1.98387675
      3.10000000	     18.23580304	     -1.47618528	     -3.77020078	     -0.09814275	      0.95893844	     -0.01774001	     -0.68887819	     -2.49238116	     -3.00295994	     -8.63061971	     17.13231106	      5.95674966	     33.23973328	    -31.74840301	      2.24870029	    -12.80158589	      4.64296046	     12.68565935	     18.70887812	      6.19080390	    -30.49547475	     -1.69278238	      1.79401926
      3.10500000	     18.28249903	     -1.28645621	     -3.63831168	     -0.09377326	      0.95813033	     -0.01743719	     -1.01033629	     -2.60076716	     -2.78511788	     -6.63597426	     16.45848155	      5.60206464	     35.36667762	    -32.04090198	      2.35294661	    -12.78666912	      4.57188919	     12.95597036	     18.99253733	      5.73230515	    -30.53352721	     -1.81137013	      1.65676161
      3.11000000	     18.32755864	     -1.07379758	     -3.46409085	     -0.08933287	      0.95729592	     -0.01724498	     -1.29650864	     -2.75168131	     -2.74712201	     -4.84489872	     16.03902545	      5.65481392	     35.36133635	    -32.34035322	      2.45768678	    -12.64884719	      4.52024479	     13.18134652	     19.12628122	      5.73909195	    -30.56255066	     -1.92090089	      1.45967390
      3.11500000	     18.37290654	     -0.85031582	     -3.32017822	     -0.08488439	      0.95643464	     -0.01698808	     -1.55444190	     -2.91500331	     -2.68115935	     -3.19985453	     15.62998216	      5.67896732	     35.41635963	    -32.63787123	      2.58291302	    -12.54643857	      4.45800673	     13.39694963	     19.29629028	      5.74407556	    -30.58981729	     -2.05326525	      1.29690072
      3.12000000	     18.41918597	     -0.61459909	     -3.18636949	     -0.08042759	      0.95556827	     -0.01670962	     -1.77858157	     -3.09360365	     -2.64457766	     -1.72601731	     15.24760126	      5.73254384	     35.51691525	    -32.92423603	      2.71816920	    -12.44617402	      4.36610706	     13.60874047	     19.47157950	      5.74896740	    -30.61519747	     -2.19830612	      1.15437781
      3.12500000	     18.46081241	     -0.38965299	     -3.07223665	     -0.07592104	      0.95468134	     -0.01638439	     -1.96769007	     -3.26089829	     -2.61310875	     -0.42067132	     14.90695414	      5.81978476	     35.67281886	    -33.22234551	      2.85166504	    -12.36486099	      4.29831490	     13.82209301	     19.64614245	      5.75267436	    -30.62969482	     -2.33721946	      1.02050541
      3.13000000	     18.50313571	     -0.15339881	     -2.96221850	     -0.07141649	      0.95381723	     -0.01604720	     -2.11799337	     -3.43952920	     -2.63218927	      0.69681868	     14.60270522	      5.94348760	     35.84263065	    -33.50158182	      2.99064934	    -12.27500563	      4.18606304	     14.02223861	     19.81115947	      5.76059870	    -30.64390922	     -2.48482200	      0.91561998
      3.13500000	     18.56226566	      0.05041628	     -2.86276500	     -0.06684258	      0.95296656	     -0.01566289	     -2.26674875	     -3.58132982	     -2.65301203	      1.65277353	     14.34654389	      6.08422833	     36.09583319	    -33.82634068	      3.10404735	    -12.21037470	      4.11671893	     14.22610201	     19.99245235	      5.77063215	    -30.66894709	     -2.60354942	      0.80667578
      3.14000000	     18.61962578	      0.26149983	     -2.80624590	     -0.06227333	      0.95212985	     -0.01518504	     -2.36406015	     -3.72824460	     -2.67085582	      2.42401430	     14.04966792	      6.16231827	     38.11195120	    -34.11724566	      3.23888166	    -12.25270884	      3.97297415	     14.43406734	     20.28607299	      5.73598807	    -30.69064047	     -2.74806458	      0.75573068
      3.14500000	     18.66708767	      0.46651707	     -2.71161673	     -0.05771596	      0.95131205	     -0.01478332	     -2.43307882	     -3.86661590	     -2.72475484	      3.02020066	     13.84489078	      6.30177004	     38.13061594	    -34.40942082	      3.34345692	    -12.11025113	      3.85925559	     14.62104714	     20.32538163	      5.75728274	    -30.70518811	     -2.85946904	      0.68214591
      3.15000000	     18.74738593	      0.63521340	     -2.62226322	     -0.05305724	      0.95056350	     -0.01433246	     -2.52573247	     -3.96293704	     -2.79420233	      3.45898230	     13.73710762	      6.50197016	     38.19159872	    -34.74951360	      3.41411485	    -12.04067411	      3.75218418	     14.78647106	     20.47245572	      5.79687954	    -30.74245058	     -2.93509568	      0.62808254
      3.15500000	     18.78735329	      0.80717423	     -2.58459170	     -0.04845187	      0.94976931	     -0.01381032	     -2.52449721	     -4.06655896	     -2.75618058	      3.71205020	     13.66148595	      6.65738444	     38.21489370	    -35.03462893	      3.50965973	    -11.97208138	      3.62407149	     14.96257843	     20.55809601	      5.82609777	    -30.74065643	     -3.03189860	      0.61965064
      3.16000000	     18.93384693	      0.92335309	     -2.47982178	     -0.04368280	      0.94916822	     -0.01333011	     -2.65715709	     -4.09985363	     -2.92250024	      3.84057676	     13.61685186	      6.94567541	     38.31919641	    -35.44042052	      3.51578291	    -11.98670237	      3.48224060	     15.11961386	     20.82828202	      5.90863685	    -30.83991940	     -3.04294522	      0.56848053
      3.16500000	     19.03705065	      1.04202882	     -2.42620215	     -0.03895280	      0.94852161	     -0.01278120	     -2.69923955	     -4.14140959	     -2.96994259	      3.80201148	     13.60482844	      7.21336016	     38.43813753	    -35.79120632	      3.54641532	    -11.99294737	      3.32527298	     15.27633710	     21.01702550	      6.01535156	    -30.89445508	     -3.07337492	      0.56575942
      3.17000000	     19.13731327	      1.14247090	     -2.36726786	     -0.03419164	      0.94791447	     -0.01221980	     -2.73152098	     -4.16276086	     -2.98715651	      3.64525366	     13.57899095	      7.43545766	     38.56011600	    -36.13252978	      3.55072913	    -11.98874882	      3.15018423	     15.41858238	     21.19419289	      6.15517522	    -30.94151350	     -3.07922748	      0.57068407
      3.17500000	     19.23902658	      1.24487496	     -2.32264188	     -0.02945374	      0.94732784	     -0.01163261	     -2.75623706	     -4.19085319	     -2.90018096	      3.38786872	     13.54360360	      7.53966347	     38.60759973	    -36.46269778	      3.56020168	    -11.95726546	      2.95023045	     15.56253619	     21.28283722	      6.22835589	    -30.99320905	     -3.08891027	      0.58288407
      3.18000000	     19.36420632	      1.30842870	     -2.27314830	     -0.02465366	      0.94681995	     -0.01103408	     -2.79539575	     -4.17610340	     -2.85230126	      3.01069472	     13.49967840	      7.70627865	     38.68004818	    -36.81740088	      3.52684839	    -11.97739620	      2.73667779	     15.69729016	     21.46661255	      6.34283455	    -31.06431179	     -3.05326556	      0.61978909
      3.18500000	     19.48163804	      1.34058543	     -2.22343078	     -0.01977549	      0.94633652	     -0.01042509	     -2.82167161	     -4.12974242	     -2.80726067	      2.53990147	     13.41001213	      7.92852693	     38.79571678	    -37.17580205	      3.46254589	    -12.03657195	      2.53997204	     15.81466901	     21.72519810	      6.54330308	    -31.11963275	     -2.97994502	      0.64004275
      3.19000000	     19.56832919	      1.40634470	     -2.16487654	     -0.01497819	      0.94587774	     -0.00985155	     -2.80940916	     -4.12369981	     -2.67224438	      2.00820664	     13.23382592	      7.95833946	     38.81403504	    -37.47683574	      3.41613610	    -11.94909597	      2.31268384	     15.87398268	     21.79258313	      6.59292027	    -31.15072497	     -2.92840019	      0.66722974
      3.19500000	     19.70087028	      1.38500755	     -2.12906615	     -0.01007603	      0.94549525	     -0.00918000	     -2.84579719	     -4.02561833	     -2.52737072	      1.40292931	     13.09484552	      8.13596520	     38.94910864	    -37.81661566	      3.29922917	    -12.08292001	      2.03248996	     16.01717496	     22.08421335	      6.85890163	    -31.22130558	     -2.80212358	      0.73721906
      3.20000000	     19.79459209	      1.43223727	     -2.06086898	     -0.00527052	      0.94515424	     -0.00860486	     -2.83478059	     -4.00633590	     -2.36361143	      0.75295376	     12.83478667	      8.14990022	     38.96743890	    -38.09987690	      3.21917343	    -11.97935763	      1.75672896	     16.03582584	     22.15465153	      6.91599801	    -31.26362820	     -2.71882784	      0.75888496
